<?xml version="1.0" encoding="UTF-8" standalone="no"?>
<!DOCTYPE svg PUBLIC "-//W3C//DTD SVG 1.1//EN"
 "http://www.w3.org/Graphics/SVG/1.1/DTD/svg11.dtd">
<!-- Generated by graphviz version 2.43.0 (0)
 -->
<!-- Title: my_graph Pages: 1 -->
<svg width="470pt" height="404pt"
 viewBox="0.00 0.00 470.23 404.00" xmlns="http://www.w3.org/2000/svg" xmlns:xlink="http://www.w3.org/1999/xlink">
<g id="graph0" class="graph" transform="scale(1 1) rotate(0) translate(4 400)">
<title>my_graph</title>
<polygon fill="white" stroke="transparent" points="-4,4 -4,-400 466.23,-400 466.23,4 -4,4"/>
<!-- com.example.Person -->
<g id="node1" class="node">
<title>com.example.Person</title>
<polygon fill="none" stroke="black" points="236.79,-396 171.79,-396 171.79,-360 236.79,-360 236.79,-396"/>
<text text-anchor="middle" x="204.29" y="-374.3" font-family="Times,serif" font-size="14.00">Person</text>
</g>
<!-- com.example.Person#details -->
<g id="node2" class="node">
<title>com.example.Person#details</title>
<g id="a_node2"><a xlink:title="class: Person, package: com.example">
<ellipse fill="none" stroke="black" cx="169.29" cy="-306" rx="42.49" ry="18"/>
<text text-anchor="middle" x="169.29" y="-302.3" font-family="Times,serif" font-size="14.00">details</text>
</a>
</g>
</g>
<!-- com.example.Person&#45;&gt;com.example.Person#details -->
<g id="edge1" class="edge">
<title>com.example.Person&#45;&gt;com.example.Person#details</title>
<path fill="none" stroke="blue" stroke-dasharray="5,2" d="M195.64,-359.7C191.66,-351.73 186.84,-342.1 182.42,-333.26"/>
<polygon fill="blue" stroke="blue" points="185.45,-331.48 177.84,-324.1 179.19,-334.61 185.45,-331.48"/>
</g>
<!-- com.example.Person#to_string -->
<g id="node3" class="node">
<title>com.example.Person#to_string</title>
<g id="a_node3"><a xlink:title="class: Person, package: com.example">
<ellipse fill="none" stroke="black" cx="187.29" cy="-234" rx="51.99" ry="18"/>
<text text-anchor="middle" x="187.29" y="-230.3" font-family="Times,serif" font-size="14.00">to_string</text>
</a>
</g>
</g>
<!-- com.example.Person&#45;&gt;com.example.Person#to_string -->
<g id="edge2" class="edge">
<title>com.example.Person&#45;&gt;com.example.Person#to_string</title>
<path fill="none" stroke="blue" stroke-dasharray="5,2" d="M212.01,-359.7C219.02,-341.6 227.28,-312.45 220.29,-288 217.46,-278.1 212.19,-268.25 206.67,-259.77"/>
<polygon fill="blue" stroke="blue" points="209.51,-257.72 200.93,-251.5 203.75,-261.71 209.51,-257.72"/>
</g>
<!-- com.example.Person#get_first_name -->
<g id="node4" class="node">
<title>com.example.Person#get_first_name</title>
<g id="a_node4"><a xlink:title="class: Person, package: com.example">
<ellipse fill="none" stroke="black" cx="282.29" cy="-162" rx="79.09" ry="18"/>
<text text-anchor="middle" x="282.29" y="-158.3" font-family="Times,serif" font-size="14.00">get_first_name</text>
</a>
</g>
</g>
<!-- com.example.Person&#45;&gt;com.example.Person#get_first_name -->
<g id="edge3" class="edge">
<title>com.example.Person&#45;&gt;com.example.Person#get_first_name</title>
<path fill="none" stroke="blue" stroke-dasharray="5,2" d="M216.17,-359.96C222.8,-349.86 230.8,-336.61 236.29,-324 255.9,-278.98 269.66,-223.28 276.75,-190.59"/>
<polygon fill="blue" stroke="blue" points="280.25,-190.95 278.9,-180.44 273.4,-189.5 280.25,-190.95"/>
</g>
<!-- com.example.Person#get_second_name -->
<g id="node5" class="node">
<title>com.example.Person#get_second_name</title>
<g id="a_node5"><a xlink:title="class: Person, package: com.example">
<ellipse fill="none" stroke="black" cx="92.29" cy="-162" rx="92.08" ry="18"/>
<text text-anchor="middle" x="92.29" y="-158.3" font-family="Times,serif" font-size="14.00">get_second_name</text>
</a>
</g>
</g>
<!-- com.example.Person&#45;&gt;com.example.Person#get_second_name -->
<g id="edge4" class="edge">
<title>com.example.Person&#45;&gt;com.example.Person#get_second_name</title>
<path fill="none" stroke="blue" stroke-dasharray="5,2" d="M171.51,-364.9C152.94,-356.33 130.96,-342.95 118.29,-324 91.17,-283.43 88.78,-224.52 90.12,-190.34"/>
<polygon fill="blue" stroke="blue" points="93.62,-190.34 90.66,-180.17 86.63,-189.97 93.62,-190.34"/>
</g>
<!-- com.example.Person#details&#45;&gt;com.example.Person#to_string -->
<g id="edge5" class="edge">
<title>com.example.Person#details&#45;&gt;com.example.Person#to_string</title>
<path fill="none" stroke="black" d="M173.65,-288.05C175.65,-280.26 178.08,-270.82 180.33,-262.08"/>
<polygon fill="black" stroke="black" points="183.75,-262.83 182.85,-252.28 176.97,-261.09 183.75,-262.83"/>
</g>
<!-- com.example.Person#to_string&#45;&gt;com.example.Person#get_first_name -->
<g id="edge6" class="edge">
<title>com.example.Person#to_string&#45;&gt;com.example.Person#get_first_name</title>
<path fill="none" stroke="black" d="M208.38,-217.46C221.05,-208.13 237.41,-196.07 251.51,-185.68"/>
<polygon fill="black" stroke="black" points="253.97,-188.22 259.94,-179.47 249.82,-182.58 253.97,-188.22"/>
</g>
<!-- com.example.Person#to_string&#45;&gt;com.example.Person#get_second_name -->
<g id="edge7" class="edge">
<title>com.example.Person#to_string&#45;&gt;com.example.Person#get_second_name</title>
<path fill="none" stroke="black" d="M166.21,-217.46C153.53,-208.13 137.18,-196.07 123.08,-185.68"/>
<polygon fill="black" stroke="black" points="124.77,-182.58 114.64,-179.47 120.61,-188.22 124.77,-182.58"/>
</g>
<!-- com.string.Utils#title_case -->
<g id="node7" class="node">
<title>com.string.Utils#title_case</title>
<g id="a_node7"><a xlink:title="class: Utils, package: com.string">
<ellipse fill="none" stroke="black" cx="302.29" cy="-90" rx="54.69" ry="18"/>
<text text-anchor="middle" x="302.29" y="-86.3" font-family="Times,serif" font-size="14.00">title_case</text>
</a>
</g>
</g>
<!-- com.example.Person#get_first_name&#45;&gt;com.string.Utils#title_case -->
<g id="edge10" class="edge">
<title>com.example.Person#get_first_name&#45;&gt;com.string.Utils#title_case</title>
<path fill="none" stroke="black" d="M287.24,-143.7C289.46,-135.9 292.15,-126.51 294.63,-117.83"/>
<polygon fill="black" stroke="black" points="298.02,-118.68 297.4,-108.1 291.29,-116.76 298.02,-118.68"/>
</g>
<!-- com.example.Person#get_second_name&#45;&gt;com.string.Utils#title_case -->
<g id="edge12" class="edge">
<title>com.example.Person#get_second_name&#45;&gt;com.string.Utils#title_case</title>
<path fill="none" stroke="black" d="M136.83,-146.15C171.71,-134.53 220.11,-118.39 255.55,-106.58"/>
<polygon fill="black" stroke="black" points="256.8,-109.85 265.18,-103.37 254.59,-103.21 256.8,-109.85"/>
</g>
<!-- com.string.Utils -->
<g id="node6" class="node">
<title>com.string.Utils</title>
<polygon fill="none" stroke="black" points="433.29,-180 379.29,-180 379.29,-144 433.29,-144 433.29,-180"/>
<text text-anchor="middle" x="406.29" y="-158.3" font-family="Times,serif" font-size="14.00">Utils</text>
</g>
<!-- com.string.Utils&#45;&gt;com.string.Utils#title_case -->
<g id="edge8" class="edge">
<title>com.string.Utils&#45;&gt;com.string.Utils#title_case</title>
<path fill="none" stroke="blue" stroke-dasharray="5,2" d="M380.85,-143.88C366.67,-134.33 348.9,-122.37 333.84,-112.24"/>
<polygon fill="blue" stroke="blue" points="335.59,-109.19 325.34,-106.51 331.68,-115 335.59,-109.19"/>
</g>
<!-- com.string.Utils#title_case(String name) -->
<g id="node8" class="node">
<title>com.string.Utils#title_case(String name)</title>
<g id="a_node8"><a xlink:title="class: Utils, package: com.string">
<ellipse fill="none" stroke="black" cx="343.29" cy="-18" rx="118.88" ry="18"/>
<text text-anchor="middle" x="343.29" y="-14.3" font-family="Times,serif" font-size="14.00">title_case(String name)</text>
</a>
</g>
</g>
<!-- com.string.Utils&#45;&gt;com.string.Utils#title_case(String name) -->
<g id="edge9" class="edge">
<title>com.string.Utils&#45;&gt;com.string.Utils#title_case(String name)</title>
<path fill="none" stroke="blue" stroke-dasharray="5,2" d="M398.69,-143.87C387.86,-119.46 367.88,-74.43 355.11,-45.64"/>
<polygon fill="blue" stroke="blue" points="358.17,-43.91 350.92,-36.19 351.77,-46.75 358.17,-43.91"/>
</g>
<!-- com.string.Utils#title_case&#45;&gt;com.string.Utils#title_case(String name) -->
<g id="edge11" class="edge">
<title>com.string.Utils#title_case&#45;&gt;com.string.Utils#title_case(String name)</title>
<path fill="none" stroke="black" d="M312.22,-72.05C316.98,-63.92 322.79,-54 328.1,-44.94"/>
<polygon fill="black" stroke="black" points="331.14,-46.67 333.17,-36.28 325.1,-43.14 331.14,-46.67"/>
</g>
</g>
</svg>
