<?xml version="1.0" encoding="UTF-8" standalone="no"?>
<!DOCTYPE svg PUBLIC "-//W3C//DTD SVG 1.1//EN"
 "http://www.w3.org/Graphics/SVG/1.1/DTD/svg11.dtd">
<!-- Generated by graphviz version 2.43.0 (0)
 -->
<!-- Title: sample wiring Pages: 1 -->
<svg width="400pt" height="297pt"
 viewBox="0.00 0.00 399.68 297.02" xmlns="http://www.w3.org/2000/svg" xmlns:xlink="http://www.w3.org/1999/xlink">
<g id="graph0" class="graph" transform="scale(1 1) rotate(0) translate(4 293.02)">
<title>sample wiring</title>
<polygon fill="white" stroke="transparent" points="-4,4 -4,-293.02 395.68,-293.02 395.68,4 -4,4"/>
<!-- com.example.Person#details -->
<g id="node1" class="node">
<title>com.example.Person#details</title>
<g id="a_node1"><a xlink:title="class: Person, package: com.example">
<ellipse fill="none" stroke="black" cx="188.27" cy="-266.39" rx="55.72" ry="22.76"/>
<text text-anchor="start" x="163.77" y="-268.19" font-family="Times,serif" font-size="14.00">details</text>
<text text-anchor="start" x="156.77" y="-257.39" font-family="Times,serif" font-size="10.00">class:Person</text>
</a>
</g>
</g>
<!-- com.example.Person#to_string -->
<g id="node2" class="node">
<title>com.example.Person#to_string</title>
<g id="a_node2"><a xlink:title="class: Person, package: com.example">
<ellipse fill="none" stroke="black" cx="188.27" cy="-185.14" rx="56.64" ry="22.76"/>
<text text-anchor="start" x="156.27" y="-186.94" font-family="Times,serif" font-size="14.00">to_string</text>
<text text-anchor="start" x="156.77" y="-176.14" font-family="Times,serif" font-size="10.00">class:Person</text>
</a>
</g>
</g>
<!-- com.example.Person#details&#45;&gt;com.example.Person#to_string -->
<g id="edge1" class="edge">
<title>com.example.Person#details&#45;&gt;com.example.Person#to_string</title>
<path fill="none" stroke="black" d="M188.27,-243.74C188.27,-235.78 188.27,-226.61 188.27,-217.95"/>
<polygon fill="black" stroke="black" points="191.77,-217.77 188.27,-207.77 184.77,-217.77 191.77,-217.77"/>
</g>
<!-- com.example.Person#get_first_name -->
<g id="node3" class="node">
<title>com.example.Person#get_first_name</title>
<g id="a_node3"><a xlink:title="class: Person, package: com.example">
<ellipse fill="none" stroke="black" cx="86.27" cy="-103.88" rx="86.03" ry="22.76"/>
<text text-anchor="start" x="33.27" y="-105.68" font-family="Times,serif" font-size="14.00">get_first_name</text>
<text text-anchor="start" x="54.77" y="-94.88" font-family="Times,serif" font-size="10.00">class:Person</text>
</a>
</g>
</g>
<!-- com.example.Person#to_string&#45;&gt;com.example.Person#get_first_name -->
<g id="edge2" class="edge">
<title>com.example.Person#to_string&#45;&gt;com.example.Person#get_first_name</title>
<path fill="none" stroke="black" d="M163.32,-164.75C150.5,-154.79 134.68,-142.5 120.71,-131.65"/>
<polygon fill="black" stroke="black" points="122.79,-128.83 112.74,-125.46 118.49,-134.35 122.79,-128.83"/>
</g>
<!-- com.example.Person#get_second_name -->
<g id="node4" class="node">
<title>com.example.Person#get_second_name</title>
<g id="a_node4"><a xlink:title="class: Person, package: com.example">
<ellipse fill="none" stroke="black" cx="291.27" cy="-103.88" rx="100.32" ry="22.76"/>
<text text-anchor="start" x="228.27" y="-105.68" font-family="Times,serif" font-size="14.00">get_second_name</text>
<text text-anchor="start" x="259.77" y="-94.88" font-family="Times,serif" font-size="10.00">class:Person</text>
</a>
</g>
</g>
<!-- com.example.Person#to_string&#45;&gt;com.example.Person#get_second_name -->
<g id="edge3" class="edge">
<title>com.example.Person#to_string&#45;&gt;com.example.Person#get_second_name</title>
<path fill="none" stroke="black" d="M213.46,-164.75C226.31,-154.87 242.14,-142.69 256.16,-131.9"/>
<polygon fill="black" stroke="black" points="258.38,-134.61 264.17,-125.74 254.11,-129.06 258.38,-134.61"/>
</g>
<!-- com.string.Utils#title_case -->
<g id="node5" class="node">
<title>com.string.Utils#title_case</title>
<g id="a_node5"><a xlink:title="class: Utils, package: com.string">
<ellipse fill="none" stroke="black" cx="188.27" cy="-22.63" rx="59.29" ry="22.76"/>
<text text-anchor="start" x="154.27" y="-24.43" font-family="Times,serif" font-size="14.00">title_case</text>
<text text-anchor="start" x="162.27" y="-13.63" font-family="Times,serif" font-size="10.00">class:Utils</text>
</a>
</g>
</g>
<!-- com.example.Person#get_first_name&#45;&gt;com.string.Utils#title_case -->
<g id="edge4" class="edge">
<title>com.example.Person#get_first_name&#45;&gt;com.string.Utils#title_case</title>
<path fill="none" stroke="black" d="M112.8,-82.27C125.61,-72.31 141.11,-60.27 154.73,-49.69"/>
<polygon fill="black" stroke="black" points="157.17,-52.22 162.92,-43.32 152.88,-46.69 157.17,-52.22"/>
</g>
<!-- com.example.Person#get_second_name&#45;&gt;com.string.Utils#title_case -->
<g id="edge5" class="edge">
<title>com.example.Person#get_second_name&#45;&gt;com.string.Utils#title_case</title>
<path fill="none" stroke="black" d="M264.2,-82.06C251.27,-72.11 235.66,-60.1 221.97,-49.56"/>
<polygon fill="black" stroke="black" points="223.79,-46.55 213.73,-43.22 219.52,-52.09 223.79,-46.55"/>
</g>
</g>
</svg>
